<svg width="747" height="423" viewBox="0 0 747 423" fill="none" xmlns="http://www.w3.org/2000/svg">
<path d="M353.434 494.025C186.675 395.397 37.1173 175.486 194.611 51.6642C340.632 -63.1391 416.665 63.992 585.723 -9.18331C754.781 -82.3586 671.305 -293.966 864.242 -345.667C976.228 -375.676 1112.88 -327.407 1185.18 -217.019C1257.47 -106.631 1265.41 65.8756 1119.97 284.343C982.585 490.711 815.169 557.456 669.991 565.447C524.814 573.439 401.873 522.674 353.434 494.025Z" stroke="white" stroke-opacity="0.4" stroke-width="2.10293" stroke-miterlimit="10"/>
<path d="M1100.04 284.42C974.33 473.828 820.875 535.927 687.253 543.865C554.502 551.578 441.68 505.775 396.007 479.372C240.907 389.103 101.495 186.36 242.555 69.5578C372.8 -38.2916 443.254 73.0963 598.271 4.85099C602.676 2.89594 606.903 0.844074 610.962 -1.29943C720.942 -59.3125 706.751 -184.983 780.647 -257.619C800.707 -277.336 827.156 -293.248 864.171 -302.76C970.644 -330.12 1096.79 -284.564 1162.82 -182.148C1229.04 -79.1656 1234.43 81.5137 1100.04 284.42Z" stroke="white" stroke-opacity="0.4" stroke-width="2.10293" stroke-miterlimit="10"/>
<path d="M1080.09 284.301C966.101 456.774 826.62 514.256 704.556 522.168C584.235 529.627 481.423 488.921 438.608 464.656C294.808 383.163 165.82 197.261 290.425 87.4148C404.868 -13.4739 470.045 82.5225 610.731 18.7795C614.786 16.9424 618.667 14.9979 622.411 12.9849C723.576 -41.2877 715.512 -154.735 785.786 -219.636C804.975 -237.358 829.797 -251.652 863.935 -260.007C964.907 -284.722 1080.54 -241.919 1140.33 -147.486C1200.49 -51.9217 1203.38 96.9285 1080.09 284.301Z" stroke="white" stroke-opacity="0.4" stroke-width="2.10293" stroke-miterlimit="10"/>
<path d="M1060.14 284.184C957.871 439.722 832.392 492.838 721.86 500.472C613.992 507.922 521.224 472.005 481.208 449.943C348.914 377.004 230.14 208.21 338.295 105.274C436.938 11.39 496.688 91.72 623.19 32.7098C626.889 30.9838 630.432 29.1529 633.859 27.2709C726.209 -23.262 724.301 -124.483 790.923 -181.652C809.248 -197.377 832.447 -210.04 863.697 -217.254C959.192 -239.298 1064.29 -199.273 1117.84 -112.825C1171.95 -24.6763 1172.32 112.346 1060.14 284.184Z" stroke="white" stroke-opacity="0.4" stroke-width="2.10293" stroke-miterlimit="10"/>
<path d="M1040.18 284.066C949.995 422.821 838.147 471.241 739.162 478.776C643.733 486.039 561.031 455.083 523.806 435.228C403.048 370.818 294.461 219.22 386.163 123.132C469.018 36.3129 523.316 100.887 635.647 46.6396C638.992 45.024 642.194 43.3079 645.305 41.5563C728.84 -5.23628 733.128 -94.2243 796.059 -143.669C813.53 -157.396 835.104 -168.41 863.457 -174.501C953.502 -193.843 1048.28 -156.725 1095.35 -78.162C1143.66 2.46769 1141.67 127.933 1040.18 284.066Z" stroke="white" stroke-opacity="0.4" stroke-width="2.10293" stroke-miterlimit="10"/>
<path d="M1020.23 283.948C941.823 405.791 843.905 449.635 756.465 457.079C673.476 464.145 600.849 438.153 566.406 420.514C457.223 364.597 358.804 230.316 434.033 140.99C501.133 61.3154 549.93 110.015 648.107 60.5688C651.097 59.0627 653.96 57.4617 656.755 55.8413C731.474 12.7885 742.007 -63.9513 801.197 -105.686C817.828 -117.412 837.777 -126.758 863.221 -131.747C947.846 -148.342 1032.07 -114.092 1072.86 -43.5006C1115.16 29.6995 1110.69 143.38 1020.23 283.948Z" stroke="white" stroke-opacity="0.4" stroke-width="2.10293" stroke-miterlimit="10"/>
<path d="M1000.28 283.83C933.629 388.751 849.664 428.014 773.768 435.382C703.22 442.232 640.68 421.212 609.005 405.799C511.444 358.329 423.205 241.531 481.904 158.848C533.317 86.4267 576.517 119.092 660.567 74.4995C663.201 73.1018 665.724 71.6176 668.204 70.1277C734.108 30.8151 750.95 -33.6478 806.336 -67.7021C822.142 -77.4213 840.462 -85.078 862.984 -88.9938C942.226 -102.772 1015.84 -71.4501 1050.37 -8.83782C1086.64 56.9388 1079.69 158.818 1000.28 283.83Z" stroke="white" stroke-opacity="0.4" stroke-width="2.10293" stroke-miterlimit="10"/>
<path d="M980.328 283.712C925.401 371.696 855.426 406.369 791.071 413.686C732.964 420.293 680.529 404.251 651.605 391.085C565.726 351.994 482.75 250.943 529.773 176.706C569.907 113.343 603.059 128.097 673.026 88.4286C675.303 87.1372 677.488 85.7719 679.653 84.4121C736.742 48.8393 759.969 -3.29507 811.475 -29.7195C826.479 -37.4178 843.161 -43.3633 862.748 -46.2412C936.648 -57.1009 999.591 -28.7984 1027.88 25.8238C1058.1 84.1886 1048.67 174.242 980.328 283.712Z" stroke="white" stroke-opacity="0.4" stroke-width="2.10293" stroke-miterlimit="10"/>
<path d="M960.376 283.595C917.125 354.62 861.184 384.681 808.374 391.99C762.704 398.311 720.402 387.259 694.205 376.372C620.08 345.564 552.602 264.432 577.643 194.564C598.247 137.075 629.529 137.006 685.485 102.359C687.403 101.171 689.252 99.9265 691.101 98.6979C739.375 66.8656 769.067 27.1501 816.612 8.26441C830.837 2.6133 845.868 -1.6011 862.51 -3.48732C931.109 -11.2625 983.304 13.8674 1005.39 60.4865C1029.53 111.452 1017.59 189.642 960.376 283.595Z" stroke="white" stroke-opacity="0.4" stroke-width="2.10293" stroke-miterlimit="10"/>
<path d="M940.423 283.477C908.768 337.51 866.926 362.905 825.677 370.294C792.43 376.249 760.306 370.212 736.805 361.657C674.518 338.983 618.076 276.046 625.513 212.422C631.345 162.536 655.863 145.776 697.944 116.288C699.499 115.199 701.016 114.081 702.549 112.983C742.008 84.8909 778.222 57.7454 821.749 46.2474C835.214 42.6907 848.581 40.2188 862.273 39.265C925.598 34.8549 966.96 56.5492 982.897 95.148C1000.89 138.735 986.4 204.999 940.423 283.477Z" stroke="white" stroke-opacity="0.4" stroke-width="2.10293" stroke-miterlimit="10"/>
<path d="M673.383 230.281C664.756 185.969 683.354 151.621 713.998 127.269C744.642 102.916 787.332 88.5598 826.888 84.2312C908.05 75.3497 948.682 93.5827 960.406 129.81C972.13 166.038 954.945 220.261 920.472 283.359C885.999 346.457 829.783 361.72 779.406 346.942C729.029 332.165 684.492 287.347 673.383 230.281Z" stroke="white" stroke-opacity="0.4" stroke-width="2.10293" stroke-miterlimit="10"/>
</svg>
