<svg width="164" height="28" viewBox="0 0 164 28" fill="none" xmlns="http://www.w3.org/2000/svg">
<path d="M12.586 3.6202C13.1635 2.44887 14.833 2.44887 15.4105 3.6202L18.1615 9.19337L24.3133 10.087C25.6048 10.2749 26.1205 11.8627 25.186 12.7739L20.734 17.1139L21.7852 23.2389C22.0068 24.5257 20.6558 25.5069 19.4997 24.9002L13.9977 22.0069L8.49685 24.9002C7.34185 25.5069 5.99085 24.5269 6.21018 23.2389L7.26135 17.1139L2.81052 12.7739C1.87602 11.8639 2.39168 10.2749 3.68318 10.087L9.83502 9.19337L12.586 3.6202Z" fill="#FFAB2E"/>
<path d="M46.586 3.6202C47.1635 2.44887 48.833 2.44887 49.4105 3.6202L52.1615 9.19337L58.3133 10.087C59.6048 10.2749 60.1205 11.8627 59.186 12.7739L54.734 17.1139L55.7852 23.2389C56.0068 24.5257 54.6558 25.5069 53.4997 24.9002L47.9977 22.0069L42.4968 24.9002C41.3418 25.5069 39.9908 24.5269 40.2102 23.2389L41.2613 17.1139L36.8105 12.7739C35.876 11.8639 36.3917 10.2749 37.6832 10.087L43.835 9.19337L46.586 3.6202Z" fill="#FFAB2E"/>
<path d="M80.586 3.6202C81.1635 2.44887 82.833 2.44887 83.4105 3.6202L86.1615 9.19337L92.3133 10.087C93.6048 10.2749 94.1205 11.8627 93.186 12.7739L88.734 17.1139L89.7852 23.2389C90.0068 24.5257 88.6558 25.5069 87.4997 24.9002L81.9977 22.0069L76.4968 24.9002C75.3418 25.5069 73.9908 24.5269 74.2102 23.2389L75.2613 17.1139L70.8105 12.7739C69.876 11.8639 70.3917 10.2749 71.6832 10.087L77.835 9.19337L80.586 3.6202Z" fill="#FFAB2E"/>
<path d="M114.586 3.6202C115.164 2.44887 116.833 2.44887 117.411 3.6202L120.162 9.19337L126.313 10.087C127.605 10.2749 128.121 11.8627 127.186 12.7739L122.734 17.1139L123.785 23.2389C124.007 24.5257 122.656 25.5069 121.5 24.9002L115.998 22.0069L110.497 24.9002C109.342 25.5069 107.991 24.5269 108.21 23.2389L109.261 17.1139L104.811 12.7739C103.876 11.8639 104.392 10.2749 105.683 10.087L111.835 9.19337L114.586 3.6202Z" fill="#FFAB2E"/>
<path d="M148.586 3.6202C149.164 2.44887 150.833 2.44887 151.411 3.6202L154.162 9.19337L160.313 10.087C161.605 10.2749 162.121 11.8627 161.186 12.7739L156.734 17.1139L157.785 23.2389C158.007 24.5257 156.656 25.5069 155.5 24.9002L149.998 22.0069L144.497 24.9002C143.342 25.5069 141.991 24.5269 142.21 23.2389L143.261 17.1139L138.811 12.7739C137.876 11.8639 138.392 10.2749 139.683 10.087L145.835 9.19337L148.586 3.6202Z" fill="#FFAB2E"/>
</svg>
